<?xml version="1.0" encoding="UTF-8"?>
<svg id="a" data-name="Layer 1" xmlns="http://www.w3.org/2000/svg" viewBox="0 0 141.059 86.908">
  <path d="M32.622,8.674c3.652,0,5.479.941,5.479,2.822.442.139.719,3.957.83,11.455,0,1.079-2.158,1.854-6.475,2.324-1.107.443-2.214.664-3.32.664h-.83c-1.439,0-3.93-1.328-7.471-3.984-1.079-.332-1.743-.498-1.992-.498-2.214.526-3.32,1.522-3.32,2.988v.664c0,1.66,1.826,3.652,5.479,5.977,6.944,4.787,10.984,7.831,12.119,9.131,1.632,1.688,3.514,3.237,5.645,4.648.774.747,1.162,1.688,1.162,2.822,0,3.127.166,6.281.498,9.463,0,3.847-1.107,6.447-3.32,7.803-4.843,4.648-7.886,6.973-9.131,6.973-.166.111-.498.166-.996.166-3.984,0-7.582.056-10.791.166-3.432-.11-7.194-.166-11.289-.166-1.882,0-2.822-1.272-2.822-3.818-.747-1.909-1.301-5.063-1.66-9.463,0-2.02,1.549-3.182,4.648-3.486l3.818-.498c2.684,0,4.786,1.162,6.309,3.486,1.854,1.328,4.233,1.992,7.139,1.992,2.49,0,3.929-1.217,4.316-3.652v-.166c0-4.067-1.273-6.778-3.818-8.135-12.258-8.604-19.175-13.585-20.752-14.941-.443-1.023-.664-1.743-.664-2.158v-10.625c0-1.688,1.771-3.846,5.312-6.475,3.514-3.652,6.558-5.479,9.131-5.479h16.768Z" fill="#fff"/>
  <path d="M60.05,8.84c4.869.222,7.525.332,7.969.332h5.645c.304,0,2.241-.11,5.811-.332h3.984c3.32,0,4.98,1.052,4.98,3.154v10.625c0,2.324-1.992,3.486-5.977,3.486h-3.984c-2.214,0-3.32,1.384-3.32,4.15-.111.305-.166,1.135-.166,2.49v22.412c0,2.685.885,4.731,2.656,6.143.332.996.498,1.826.498,2.49v5.146c0,2.214-1.052,3.32-3.154,3.32h-13.115c-2.436,0-3.652-1.328-3.652-3.984v-3.486c0-2.435.83-4.537,2.49-6.309.442-.913.664-2.241.664-3.984v-10.957l.664-9.131c-.637-4.869-1.245-7.305-1.826-7.305-.443-.553-1.882-.83-4.316-.83h-3.652c-3.21,0-4.814-1.494-4.814-4.482v-8.965c0-2.656,1.383-3.984,4.15-3.984h8.467Z" fill="#fff"/>
  <path d="M97.77,9.006h14.775c1.771.222,2.656,1.107,2.656,2.656v6.475c0,1.079-.83,2.573-2.49,4.482-.222.72-.332,1.218-.332,1.494v30.879c0,3.1,1.881,4.648,5.645,4.648h1.328c2.103,0,3.154-1.328,3.154-3.984v-30.713c0-1.383-.83-2.988-2.49-4.814-.443-.913-.664-2.462-.664-4.648v-1.66c0-3.209.885-4.814,2.656-4.814h14.775c1.494,0,2.324.886,2.49,2.656v5.977c0,1.522-.775,3.071-2.324,4.648-.498.913-.775,2.131-.83,3.652.221,1.633.332,2.851.332,3.652v27.393c0,.941.774,2.27,2.324,3.984.332.83.498,1.716.498,2.656v5.645c0,1.992-1.162,2.988-3.486,2.988h-23.574c-2.187,0-5.009-1.826-8.467-5.479-3.652-2.49-5.479-5.091-5.479-7.803V24.611c0-1.383-.83-2.988-2.49-4.814-.221-.719-.332-1.217-.332-1.494v-6.641c.222-1.771.996-2.656,2.324-2.656Z" fill="#fff"/>
</svg>